<svg width="186" height="94" viewBox="0 0 186 94" fill="none" xmlns="http://www.w3.org/2000/svg">
<path d="M17.9618 55.9353C15.1349 56.3674 14.4596 56.0303 14.0518 53.6272C13.8087 52.1945 13.6197 50.8002 13.3844 49.4138C12.5768 44.6537 14.2418 40.8766 17.8782 37.9299C19.1736 36.8781 20.4655 35.9457 21.9427 35.1245C23.4391 34.2763 24.7498 33.1743 26.1416 32.1299C27.0489 31.4529 27.5548 30.5113 27.8945 29.4314C28.0856 28.876 28.1188 28.3712 28.0404 27.909C27.7306 26.0835 25.7889 24.8678 24.2407 25.1305C23.7555 25.2128 23.2127 25.3762 22.9053 25.6661C21.7564 26.7407 20.7077 27.8457 20.8169 29.6101L20.8425 30.4616C20.6946 31.2712 20.2067 31.7581 19.4289 31.9376C19.2671 31.9651 19.0901 32.0427 18.9284 32.0701C18.7204 32.1054 18.5277 32.0905 18.3659 32.118C16.459 32.2276 14.5328 32.3643 12.618 32.4277C11.2425 32.4471 10.3545 31.8371 10.1624 30.7048C10.1192 30.4506 10.1223 30.1886 10.1407 29.8764C10.5728 26.1184 11.4792 22.4938 14.3997 19.8112C16.7861 17.6233 19.6462 16.6864 22.7657 16.157C25.0533 15.7689 27.2799 15.5813 29.5203 16.1758C33.8428 17.2728 36.7286 19.8498 38.0783 24.1613C38.2884 24.8389 38.4483 25.5011 38.562 26.1713C39.2716 30.3537 37.9567 33.9525 34.768 37.1561C32.9315 38.9416 30.7662 40.3312 28.5544 41.5861C27.685 42.0664 26.7345 42.4892 25.9501 43.0502C25.3501 43.4373 24.6617 43.8631 24.7605 44.7259C24.8507 45.2574 25.6411 45.4323 26.7271 45.248C27.2817 45.1539 27.7744 44.9753 28.3442 44.831C31.918 44.1771 35.4918 43.5231 39.0616 42.8461C39.3851 42.7912 39.6432 42.7712 39.9053 42.7743C41.1151 42.7592 41.864 43.2502 42.0871 44.4247C42.2784 45.2718 42.4235 46.1268 42.5646 46.9587C42.7097 47.8136 42.8587 48.6917 42.9575 49.5545C43.1109 50.5983 42.6735 51.243 41.6345 51.7046C41.1458 51.9064 40.63 52.089 40.0754 52.1831L17.9618 55.9353Z" fill="url(#paint0_linear_235_473)"/>
<path d="M66.6769 47.6218C64.4124 48.0061 62.4095 48.2508 61.7891 48.2372C60.7563 48.1747 60.1491 47.3982 60.0001 46.5201C59.8981 45.9193 59.8434 44.3359 59.6983 43.4809C59.5729 42.7415 59.2704 42.0796 58.0719 42.0215C57.5169 41.973 56.9623 42.0671 56.8699 42.0828C52.0405 42.9022 47.2961 43.8024 46.4411 43.9474C46.3487 43.9631 46.0021 44.0219 45.6476 44.0345C43.4634 44.1912 43.0167 42.9595 42.7893 41.6193C42.6873 41.0185 42.2709 38.284 42.1689 37.6832C41.9651 36.4816 42.0754 36.0112 42.2355 35.4135C42.4566 34.6153 43.8314 30.3882 44.5493 28.1744C45.0151 26.7166 45.9803 23.4386 47.6839 18.3475C48.7149 15.1772 47.8562 17.9617 49.063 14.2861C49.2994 13.4378 49.9117 12.0026 52.2455 11.6066L57.1211 10.7793C61.4884 10.0383 61.5425 10.0767 61.9815 10.0022C62.3743 9.93551 62.6978 9.88062 63.0601 9.91424C64.1893 9.98414 64.7843 10.5488 65.0375 11.4805C65.1508 12.0081 65.2453 12.7052 65.3551 13.3522C65.4256 13.7681 67.761 28.3723 67.9375 29.4121C68.0825 30.2671 68.2691 30.806 69.8072 31.0442C70.4123 31.108 70.574 31.0805 70.898 31.1682C71.6343 31.3047 72.1635 31.7617 72.3548 32.6088C72.5853 33.687 73.0479 36.4137 73.0597 36.483C73.2754 37.7539 73.3742 38.6167 71.7431 39.5116C71.1776 39.8215 70.4844 39.9391 70.1818 40.5372C69.9864 40.927 69.9606 41.3355 70.039 41.7976C70.0978 42.1442 70.1597 42.2288 70.3236 42.9142C70.4098 43.4225 70.5227 43.8075 70.605 44.2928C70.8481 45.7254 70.4617 46.6706 69.5418 46.9931C69.2109 47.1443 68.2251 47.3591 66.6769 47.6218ZM53.7289 33.9388C54.0986 33.8761 54.4143 33.775 55.0613 33.6652C55.1306 33.6534 55.7776 33.5436 56.3897 33.3684C57.352 33.015 57.7771 32.1584 57.6281 31.2803L57.1663 28.8388C56.8613 27.3215 56.9202 27.6681 56.9045 27.5757C56.5555 25.5192 56.5373 24.5713 56.561 23.45C56.5798 23.2804 56.575 22.9722 56.5319 22.718C56.4339 22.1403 56.1628 21.6633 55.562 21.7653C54.8225 21.8907 54.3668 22.8477 54.2154 23.7767C53.7307 26.6641 53.4615 28.1599 52.2408 31.0533C52.0036 31.6166 51.7511 32.2299 51.8609 32.8769C51.9001 33.108 51.9663 33.3583 52.1943 33.5811C52.6311 34.0537 53.105 34.0447 53.7289 33.9388Z" fill="url(#paint1_linear_235_473)"/>
<path d="M81.3262 52.3392C80.3789 52.4999 79.527 52.383 78.6951 52.5241C78.0943 52.6261 77.2284 52.987 76.3504 53.136C75.403 53.2967 74.828 52.9901 74.7025 52.2507C74.675 52.089 74.6781 51.8269 74.7043 51.561C74.8815 50.2234 75.3708 48.9042 75.4696 47.1045C75.5141 46.5265 81.7201 10.5279 82.1188 8.53463C82.4002 7.25072 83.0604 6.37798 84.0924 6.15533C85.0781 5.94052 86.0678 5.74882 87.0152 5.58806C88.0088 5.41947 88.9601 5.28182 89.8692 5.17512C90.7089 5.08019 91.1836 5.35622 91.3012 6.04944C91.3522 6.34983 91.3338 6.66199 91.2619 7.07834C90.8291 9.29129 84.2205 47.26 83.772 49.3805C83.4034 51.1309 82.6434 52.1157 81.3262 52.3392Z" fill="url(#paint2_linear_235_473)"/>
<path d="M103.836 41.3167C103.536 41.3676 103.258 41.4147 102.996 41.4116C101.629 41.4773 100.884 41.0094 100.672 39.7616C100.386 38.0748 100.492 36.3213 100.452 34.5451C100.46 33.0462 100.579 31.6472 100.659 30.1596C100.654 29.7088 100.676 29.2772 100.763 28.8108C101.566 25.4177 102.234 21.9286 103.785 18.7414C104.475 17.3407 105.168 15.9631 106.066 14.6697C106.446 14.2486 106.803 13.8314 107.083 13.3798C107.31 13.0323 107.597 12.6269 107.523 12.1879C107.507 12.0954 107.441 11.9877 107.372 11.8569C107.047 11.3416 106.438 11.3973 105.937 11.5298C104.247 12.078 102.484 12.4723 100.774 12.7625C99.5955 12.9624 98.4323 13.1123 97.2538 13.3122C96.653 13.4142 96.0985 13.5083 95.4824 13.6604L94.7661 13.7819C92.5478 14.1583 91.5368 13.6642 91.2349 11.8849C91.2193 11.7925 91.1078 10.5753 91.0647 10.3211C90.9157 9.44301 90.6782 8.60372 90.4908 7.77971C90.1772 5.93113 90.7449 5.07407 92.6397 4.75257C93.8565 4.49855 95.0354 4.44115 100.003 3.59818C101.921 3.27275 104.293 2.68013 107.505 2.13513C109.492 1.79795 111.749 1.51006 114.384 1.06308C116.024 0.784705 116.945 0.889894 117.358 2.34131C117.455 2.63386 117.56 2.97263 117.619 3.31924C117.627 3.36545 117.764 5.29161 117.917 6.19279C118.109 7.32505 118.598 8.81091 118.618 8.92645C118.779 9.87385 118.473 10.734 117.898 11.5448C117.763 11.734 117.564 11.9581 117.383 12.1551C113.992 15.9874 112.21 20.4738 111.453 25.4041C111.241 26.5337 111.356 27.7741 111.406 28.9067C111.523 30.8599 111.506 32.8597 111.835 34.8007C111.945 35.4477 112.109 36.1331 112.303 36.7182C112.373 36.849 112.393 36.9646 112.416 37.1032C112.467 37.4036 112.434 37.7659 112.392 38.082C112.379 38.9875 111.95 39.6785 111.068 39.9469C110.645 40.1138 110.191 40.2385 109.752 40.313L103.836 41.3167Z" fill="url(#paint3_linear_235_473)"/>
<path d="M5.37831 69.8694L7.49822 69.684L7.99081 75.3185C8.09079 76.4622 7.84317 77.327 7.23523 77.9283C6.64001 78.5143 5.84031 78.8512 4.82219 78.9403C2.66044 79.1292 1.19664 77.9784 0.983954 75.7062L3.01287 75.4445C3.18503 76.61 3.7038 77.2392 4.65218 77.1563C5.58661 77.0746 5.95747 76.4941 5.85627 75.3365L5.37831 69.8694ZM16.73 75.9739L16.8824 77.7173L10.1043 78.3098L9.33615 69.5233L15.9888 68.9417L16.1412 70.6851L11.5666 71.085L11.7178 72.8144L15.2743 72.5035L15.4242 74.219L11.8678 74.5299L12.03 76.3848L16.73 75.9739ZM26.6183 76.8661L24.3729 77.0624L20.2017 68.5734L22.4053 68.3808L25.3024 74.3532L25.3582 74.3483L27.1472 67.9662L29.2532 67.7821L26.6183 76.8661ZM33.8811 69.8088L33.0038 72.7945L35.319 72.5921L33.9369 69.8039L33.8811 69.8088ZM36.9906 75.9593L36.0856 74.1272L32.5291 74.4381L31.9558 76.3995L29.8359 76.5848L32.5823 67.4911L34.9393 67.285L39.25 75.7618L36.9906 75.9593ZM34.3606 66.7735L32.9101 66.9003L33.495 64.9098L35.5451 64.7305L34.3606 66.7735ZM46.1632 75.1574L44.3501 75.3159L41.984 68.9879L41.9282 68.9928L42.4952 75.4781L40.5427 75.6488L39.7745 66.8623L43.0659 66.5745L45.1274 72.3108L45.1692 72.3072L46.1342 66.3063L49.356 66.0247L50.1241 74.8111L48.0042 74.9965L47.4372 68.5112L47.3814 68.5161L46.1632 75.1574ZM60.1484 73.9348L57.9029 74.1311L53.7318 65.6421L55.9354 65.4495L58.8325 71.4218L58.8883 71.417L60.6773 65.0349L62.7832 64.8508L60.1484 73.9348ZM67.4112 66.8774L66.5339 69.8632L68.849 69.6608L67.467 66.8726L67.4112 66.8774ZM70.5207 73.028L69.6156 71.1958L66.0592 71.5068L65.4859 73.4682L63.3659 73.6535L66.1124 64.5597L68.4694 64.3537L72.78 72.8305L70.5207 73.028ZM67.8906 63.8421L66.4402 63.9689L67.025 61.9784L69.0752 61.7992L67.8906 63.8421ZM73.2311 69.6431L75.1636 69.4039C75.3394 70.6111 76.3165 71.0176 77.3904 70.9237C78.3248 70.842 78.8777 70.4142 78.8277 69.8424C78.7777 69.2706 78.2483 69.1623 77.4678 69.0759L75.7964 68.9269C74.3786 68.7839 73.3201 68.0894 73.1896 66.5971C73.0384 64.8677 74.3113 63.6743 76.4312 63.489C78.8162 63.2805 80.2181 64.3665 80.4294 66.3015L78.4817 66.5279C78.3369 65.5147 77.5666 65.0621 76.5624 65.1499C75.6698 65.2279 75.1994 65.6344 75.2518 66.2341C75.2957 66.7362 75.716 66.8822 76.3546 66.9528L78.026 67.1018C79.8392 67.2665 80.754 68.086 80.8796 69.5225C80.9589 70.429 80.6699 71.1429 80.0128 71.6641C79.3557 72.1853 78.5257 72.4968 77.5355 72.5834C76.3779 72.6846 75.3912 72.4898 74.5741 71.985C73.771 71.479 73.3237 70.703 73.2311 69.6431ZM77.5547 62.9973L75.6021 63.168L74.2484 61.3469L75.5455 61.2336L76.4821 61.9808L77.2749 61.0824L78.5719 60.969L77.5547 62.9973ZM94.0393 70.9719L91.501 71.1938L88.491 67.789L87.745 68.7396L87.9864 71.5011L85.8665 71.6864L85.0983 62.8999L87.2183 62.7146L87.5438 66.4384L90.6073 62.4183L93.048 62.2049L89.9045 66.2742L94.0393 70.9719ZM102.886 65.7716C103.004 67.1245 102.667 68.2501 101.863 69.1777C101.073 70.1041 100.035 70.6163 98.7661 70.7273C97.497 70.8383 96.3865 70.5137 95.4474 69.7386C94.5083 68.9634 93.9809 67.9134 93.8626 66.5605C93.7443 65.2077 94.0816 64.082 94.8719 63.1557C95.6622 62.2293 96.6996 61.717 97.9687 61.6061C99.2379 61.4951 100.348 61.8197 101.287 62.5948C102.24 63.3688 102.768 64.4188 102.886 65.7716ZM100.71 65.9619C100.569 64.344 99.5674 63.3354 98.1309 63.461C96.7222 63.5842 95.8969 64.7525 96.0383 66.3703C96.1797 67.9881 97.1953 68.9955 98.604 68.8724C100.04 68.7468 100.852 67.5797 100.71 65.9619ZM108.701 69.8587C107.613 69.9538 106.669 69.7554 105.865 69.2494C105.062 68.7434 104.604 67.8419 104.493 66.5727L104.027 61.2451L106.133 61.061L106.572 66.0818C106.694 67.4765 107.262 68.1857 108.545 68.0735C109.828 67.9614 110.28 67.1771 110.158 65.7824L109.718 60.7476L111.824 60.5635L112.289 65.8912C112.4 67.1603 112.105 68.1277 111.402 68.7653C110.699 69.403 109.803 69.7624 108.701 69.8587ZM113.719 64.8246C113.601 63.4717 113.938 62.3461 114.715 61.4209C115.491 60.4958 116.514 59.9847 117.784 59.8738C119.109 59.758 120.16 60.0455 120.936 60.7225C121.711 61.3995 122.196 62.2846 122.362 63.3803L120.347 63.6408C120.229 63.089 119.977 62.6192 119.592 62.2313C119.207 61.8433 118.658 61.6805 117.933 61.7439C116.538 61.8658 115.752 63.0026 115.895 64.6344C116.038 66.2661 117.009 67.2493 118.404 67.1273C119.129 67.0639 119.641 66.8084 119.953 66.3595C120.265 65.9106 120.431 65.4042 120.452 64.8402L122.482 64.7471C122.508 65.855 122.185 66.8109 121.538 67.6122C120.891 68.4136 119.906 68.8792 118.581 68.995C117.312 69.106 116.215 68.7802 115.29 68.0038C114.365 67.2275 113.838 66.1774 113.719 64.8246ZM118.809 59.3906L116.857 59.5613L115.503 57.7403L116.8 57.6269L117.737 58.3742L118.53 57.4757L119.827 57.3623L118.809 59.3906ZM5.79593 91.7361L5.60572 89.5604L7.78142 89.3702L7.97163 91.5459L5.79593 91.7361ZM33.1758 89.3424L30.6375 89.5643L27.6275 86.1595L26.8815 87.1101L27.1229 89.8716L25.003 90.0569L24.2348 81.2704L26.3547 81.0851L26.6803 84.8089L29.7438 80.7888L32.1845 80.5754L29.0409 84.6447L33.1758 89.3424ZM37.396 88.9735L36.6279 80.187L40.0309 79.8895C41.4674 79.7639 42.6312 80.0556 43.5363 80.7635C44.4554 81.4701 44.9676 82.5075 45.0871 83.8743C45.2066 85.241 44.8821 86.3515 44.0996 87.2069C43.3311 88.0611 42.2356 88.5504 40.799 88.676L37.396 88.9735ZM39.3696 87.1145L40.5132 87.0145C42.1729 86.8694 43.0475 85.7811 42.8963 84.0517C42.7487 82.3642 41.6974 81.4302 40.0377 81.5753L38.8941 81.6753L39.3696 87.1145ZM46.2838 79.3428L48.4038 79.1575L49.1719 87.944L47.052 88.1293L46.2838 79.3428ZM50.4456 84.6847L52.3781 84.4454C52.5539 85.6527 53.531 86.0592 54.6049 85.9653C55.5393 85.8836 56.0922 85.4558 56.0422 84.884C55.9922 84.3122 55.4628 84.2039 54.6823 84.1175L53.011 83.9685C51.5931 83.8255 50.5346 83.131 50.4041 81.6387C50.2529 79.9093 51.5258 78.7159 53.6458 78.5306C56.0307 78.3221 57.4326 79.4081 57.6439 81.343L55.6962 81.5695C55.5514 80.5563 54.7811 80.1037 53.7769 80.1915C52.8843 80.2695 52.4139 80.676 52.4664 81.2757C52.5103 81.7778 52.9306 81.9237 53.5691 81.9944L55.2405 82.1434C57.0537 82.3081 57.9685 83.1276 58.0941 84.5641C58.1734 85.4706 57.8845 86.1845 57.2274 86.7057C56.5703 87.2269 55.7402 87.5384 54.75 87.6249C53.5924 87.7261 52.6057 87.5313 51.7886 87.0266C50.9855 86.5206 50.5382 85.7446 50.4456 84.6847ZM61.8731 83.9526L62.123 86.8117L60.0171 86.9958L59.2489 78.2094L62.9588 77.885C65.2321 77.6863 66.6509 78.6444 66.8155 80.5272C66.9801 82.41 65.7503 83.6137 63.477 83.8124L61.8731 83.9526ZM61.7243 82.2511L63.2445 82.1182C64.4021 82.017 64.8385 81.5432 64.7666 80.7204C64.6946 79.8975 64.1814 79.4926 63.0238 79.5938L61.5036 79.7268L61.7243 82.2511ZM76.9823 81.0859C77.1005 82.4387 76.7633 83.5643 75.959 84.4919C75.1687 85.4183 74.1314 85.9306 72.8622 86.0415C71.5931 86.1525 70.4826 85.8279 69.5435 85.0528C68.6044 84.2776 68.077 83.2276 67.9587 81.8747C67.8404 80.5219 68.1777 79.3962 68.968 78.4699C69.7583 77.5435 70.7956 77.0313 72.0648 76.9203C73.334 76.8093 74.4444 77.1339 75.3835 77.909C76.3365 78.683 76.864 79.733 76.9823 81.0859ZM74.8066 81.2761C74.6651 79.6582 73.6635 78.6496 72.227 78.7752C70.8183 78.8984 69.993 80.0667 70.1344 81.6845C70.2758 83.3024 71.2914 84.3097 72.7001 84.1866C74.1366 84.061 74.948 82.8939 74.8066 81.2761ZM80.9074 83.4128L85.5936 83.0032L85.746 84.7465L78.396 85.3891L78.257 83.7991L82.313 77.9497L77.8221 78.3423L77.6697 76.5989L84.8523 75.971L84.995 77.6028L80.9074 83.4128ZM86.6642 75.8126L88.7841 75.6273L89.5523 84.4138L87.4323 84.5991L86.6642 75.8126ZM90.7568 79.8816C90.6385 78.5288 90.9758 77.4031 91.7522 76.478C92.5285 75.5529 93.5519 75.0418 94.8211 74.9309C96.146 74.815 97.1971 75.1026 97.973 75.7796C98.7489 76.4566 99.2338 77.3417 99.3999 78.4374L97.3849 78.6979C97.2664 78.1461 97.0145 77.6763 96.6293 77.2883C96.244 76.9004 95.6958 76.7375 94.9705 76.8009C93.5758 76.9229 92.7899 78.0596 92.9325 79.6914C93.0752 81.3232 94.0465 82.3063 95.4412 82.1844C96.1664 82.121 96.6781 81.8655 96.9902 81.4166C97.3023 80.9677 97.4688 80.4613 97.4898 79.8973L99.5194 79.8042C99.546 80.9121 99.222 81.8679 98.5753 82.6693C97.9286 83.4707 96.9434 83.9362 95.6185 84.0521C94.3493 84.163 93.2528 83.8373 92.3277 83.0609C91.4025 82.2845 90.8751 81.2345 90.7568 79.8816ZM100.637 74.591L102.757 74.4057L103.525 83.1922L101.405 83.3775L100.637 74.591Z" fill="#553631"/>
<path fill-rule="evenodd" clip-rule="evenodd" d="M140.921 54.8196C137.541 50.8634 136.126 44.8094 134.048 40.0302C133.09 37.8244 130.085 32.8205 130.102 31.2785C130.132 28.5724 131.712 28.8607 133.222 29.6375C134.733 30.4144 138.789 36.7162 140.882 37.2725C142.201 37.623 143.204 36.7658 143.333 34.8279C143.36 34.4119 142.716 31.2015 142.606 29.5363C142.248 24.1396 141.023 18.9999 141.647 13.4907C141.814 12.0102 141.807 8.87448 143.08 7.80026C145.152 6.05172 147.39 9.92625 147.706 11.2665C148.436 14.3716 149.358 17.3998 149.873 20.5836C150.169 22.4161 150.032 24.2814 150.38 26.1155C150.575 27.1475 150.828 30.2864 152.471 30.2191C152.72 30.2088 152.71 29.7916 152.703 29.6365C152.622 27.8231 153.631 24.3843 153.761 22.5404C155.178 15.744 155.015 14.1926 156.707 10.4037C157.289 9.43445 158.787 7.13721 160.221 7.25615C162.689 7.46077 162.555 10.0439 162.4 11.9687C161.994 17.0258 160.445 22.046 159.461 27.0279C159.314 27.7695 158.108 32.2915 158.942 32.7205C159.897 33.2116 161.342 29.0331 161.704 28.3192C164.147 23.5102 166.938 18.514 170.828 14.706C171.47 14.0776 174.417 10.6812 175.645 11.8016C177.367 13.374 176.426 17.0084 175.679 18.7558C173.837 23.0647 170.752 26.7769 168.597 30.9417C167.986 32.1222 166.598 34.4838 167.051 35.8858C167.597 37.5774 169.607 34.977 170.188 34.5124C172.399 32.7455 174.767 30.4586 177.365 29.2981C178.497 28.7923 179.664 27.852 180.65 29.0054C182.169 30.7834 179.017 34.9119 177.891 36.1334C173.649 40.7305 168.491 44.3769 165.05 49.721C163.553 52.0452 160.721 56.8648 158.05 57.9712C152.691 60.1906 144.88 59.4546 140.921 54.8196Z" fill="#72BD6F"/>
<defs>
<linearGradient id="paint0_linear_235_473" x1="67.4546" y1="56.0957" x2="67.4546" y2="0.94043" gradientUnits="userSpaceOnUse">
<stop stop-color="#553631"/>
<stop offset="1" stop-color="#74534D"/>
</linearGradient>
<linearGradient id="paint1_linear_235_473" x1="67.4546" y1="56.0957" x2="67.4546" y2="0.94043" gradientUnits="userSpaceOnUse">
<stop stop-color="#553631"/>
<stop offset="1" stop-color="#74534D"/>
</linearGradient>
<linearGradient id="paint2_linear_235_473" x1="67.4546" y1="56.0957" x2="67.4546" y2="0.94043" gradientUnits="userSpaceOnUse">
<stop stop-color="#553631"/>
<stop offset="1" stop-color="#74534D"/>
</linearGradient>
<linearGradient id="paint3_linear_235_473" x1="67.4546" y1="56.0957" x2="67.4546" y2="0.94043" gradientUnits="userSpaceOnUse">
<stop stop-color="#553631"/>
<stop offset="1" stop-color="#74534D"/>
</linearGradient>
</defs>
</svg>
