<svg width="186" height="93" viewBox="0 0 186 93" fill="none" xmlns="http://www.w3.org/2000/svg">
<path d="M17.9618 54.9949C15.1349 55.427 14.4596 55.0899 14.0518 52.6867C13.8087 51.2541 13.6197 49.8598 13.3844 48.4734C12.5768 43.7133 14.2418 39.9362 17.8782 36.9895C19.1736 35.9376 20.4655 35.0053 21.9427 34.1841C23.4391 33.3359 24.7498 32.2339 26.1416 31.1895C27.0489 30.5125 27.5548 29.5709 27.8945 28.491C28.0856 27.9356 28.1188 27.4307 28.0404 26.9686C27.7306 25.1431 25.7889 23.9274 24.2407 24.1901C23.7555 24.2724 23.2127 24.4358 22.9053 24.7257C21.7564 25.8002 20.7077 26.9053 20.8169 28.6697L20.8425 29.5212C20.6946 30.3308 20.2067 30.8177 19.4289 30.9972C19.2671 31.0246 19.0901 31.1022 18.9284 31.1297C18.7204 31.165 18.5277 31.1501 18.3659 31.1776C16.459 31.2872 14.5328 31.4238 12.618 31.4872C11.2425 31.5067 10.3545 30.8966 10.1624 29.7644C10.1192 29.5102 10.1223 29.2482 10.1407 28.936C10.5728 25.178 11.4792 21.5534 14.3997 18.8708C16.7861 16.6829 19.6462 15.7459 22.7657 15.2166C25.0533 14.8285 27.2799 14.6408 29.5203 15.2354C33.8428 16.3324 36.7286 18.9094 38.0783 23.2209C38.2884 23.8985 38.4483 24.5607 38.562 25.2308C39.2716 29.4132 37.9567 33.012 34.768 36.2156C32.9315 38.0011 30.7662 39.3908 28.5544 40.6456C27.685 41.126 26.7345 41.5488 25.9501 42.1098C25.3501 42.4968 24.6617 42.9227 24.7605 43.7855C24.8507 44.317 25.6411 44.4919 26.7271 44.3076C27.2817 44.2135 27.7744 44.0348 28.3442 43.8906C31.918 43.2366 35.4918 42.5827 39.0616 41.9057C39.3851 41.8508 39.6432 41.8307 39.9053 41.8338C41.1151 41.8187 41.864 42.3097 42.0871 43.4843C42.2784 44.3314 42.4235 45.1864 42.5646 46.0182C42.7097 46.8732 42.8587 47.7513 42.9575 48.6141C43.1109 49.6578 42.6735 50.3026 41.6345 50.7641C41.1458 50.9659 40.63 51.1485 40.0754 51.2426L17.9618 54.9949Z" fill="url(#paint0_linear_4993_2728)"/>
<path d="M66.6769 46.6814C64.4124 47.0656 62.4095 47.3104 61.7891 47.2968C60.7563 47.2343 60.1491 46.4578 60.0001 45.5797C59.8981 44.9789 59.8434 43.3954 59.6983 42.5405C59.5729 41.801 59.2704 41.1392 58.0719 41.081C57.5169 41.0326 56.9623 41.1267 56.8699 41.1424C52.0405 41.9618 47.2961 42.8619 46.4411 43.007C46.3487 43.0227 46.0021 43.0815 45.6476 43.0941C43.4634 43.2508 43.0167 42.0191 42.7893 40.6788C42.6873 40.0781 42.2709 37.3436 42.1689 36.7428C41.9651 35.5412 42.0754 35.0708 42.2355 34.4731C42.4566 33.6749 43.8314 29.4478 44.5493 27.234C45.0151 25.7762 45.9803 22.4982 47.6839 17.4071C48.7149 14.2368 47.8562 17.0213 49.063 13.3457C49.2994 12.4973 49.9117 11.0622 52.2455 10.6662L57.1211 9.83889C61.4884 9.09786 61.5425 9.13623 61.9815 9.06174C62.3743 8.99508 62.6978 8.94019 63.0601 8.97381C64.1893 9.04371 64.7843 9.60837 65.0375 10.5401C65.1508 11.0676 65.2453 11.7648 65.3551 12.4118C65.4256 12.8277 67.761 27.4319 67.9375 28.4717C68.0825 29.3267 68.2691 29.8656 69.8072 30.1038C70.4123 30.1675 70.574 30.1401 70.898 30.2278C71.6343 30.3643 72.1635 30.8213 72.3548 31.6684C72.5853 32.7466 73.0479 35.4733 73.0597 35.5426C73.2754 36.8135 73.3742 37.6763 71.7431 38.5711C71.1776 38.881 70.4844 38.9987 70.1818 39.5968C69.9864 39.9865 69.9606 40.395 70.039 40.8572C70.0978 41.2038 70.1597 41.2884 70.3236 41.9737C70.4098 42.4821 70.5227 42.8671 70.605 43.3523C70.8481 44.785 70.4617 45.7301 69.5418 46.0526C69.2109 46.2039 68.2251 46.4187 66.6769 46.6814ZM53.7289 32.9984C54.0986 32.9356 54.4143 32.8345 55.0613 32.7247C55.1306 32.713 55.7776 32.6032 56.3897 32.428C57.352 32.0746 57.7771 31.2179 57.6281 30.3398L57.1663 27.8983C56.8613 26.3811 56.9202 26.7277 56.9045 26.6353C56.5555 24.5787 56.5373 23.6309 56.561 22.5096C56.5798 22.34 56.575 22.0318 56.5319 21.7776C56.4339 21.1999 56.1628 20.7229 55.562 20.8248C54.8225 20.9503 54.3668 21.9072 54.2154 22.8363C53.7307 25.7237 53.4615 27.2195 52.2408 30.1129C52.0036 30.6761 51.7511 31.2895 51.8609 31.9365C51.9001 32.1676 51.9663 32.4179 52.1943 32.6407C52.6311 33.1133 53.105 33.1042 53.7289 32.9984Z" fill="url(#paint1_linear_4993_2728)"/>
<path d="M81.3262 51.3988C80.3789 51.5595 79.527 51.4426 78.6951 51.5837C78.0943 51.6857 77.2284 52.0465 76.3504 52.1955C75.403 52.3563 74.828 52.0497 74.7025 51.3103C74.675 51.1485 74.6781 50.8865 74.7043 50.6206C74.8815 49.283 75.3708 47.9638 75.4696 46.1641C75.5141 45.586 81.7201 9.58743 82.1188 7.5942C82.4002 6.31029 83.0604 5.43755 84.0924 5.2149C85.0781 5.00009 86.0678 4.80839 87.0152 4.64763C88.0088 4.47904 88.9601 4.34139 89.8692 4.23469C90.7089 4.13976 91.1836 4.41579 91.3012 5.10901C91.3522 5.4094 91.3338 5.72156 91.2619 6.13791C90.8291 8.35086 84.2205 46.3196 83.772 48.4401C83.4034 50.1905 82.6434 51.1753 81.3262 51.3988Z" fill="url(#paint2_linear_4993_2728)"/>
<path d="M103.836 40.3762C103.536 40.4272 103.258 40.4743 102.996 40.4712C101.629 40.5368 100.884 40.0689 100.672 38.8212C100.386 37.1343 100.492 35.3808 100.452 33.6047C100.46 32.1058 100.579 30.7068 100.659 29.2192C100.654 28.7684 100.676 28.3368 100.763 27.8703C101.566 24.4772 102.234 20.9882 103.785 17.801C104.475 16.4003 105.168 15.0227 106.066 13.7293C106.446 13.3082 106.803 12.891 107.083 12.4393C107.31 12.0919 107.597 11.6865 107.523 11.2474C107.507 11.155 107.441 11.0473 107.372 10.9165C107.047 10.4011 106.438 10.4569 105.937 10.5893C104.247 11.1376 102.484 11.5319 100.774 11.8221C99.5955 12.022 98.4323 12.1718 97.2538 12.3718C96.653 12.4737 96.0985 12.5678 95.4824 12.7199L94.7661 12.8415C92.5478 13.2179 91.5368 12.7238 91.2349 10.9445C91.2193 10.8521 91.1078 9.63483 91.0647 9.38065C90.9157 8.50258 90.6782 7.66329 90.4908 6.83928C90.1772 4.9907 90.7449 4.13364 92.6397 3.81214C93.8565 3.55812 95.0354 3.50072 100.003 2.65775C101.921 2.33232 104.293 1.7397 107.505 1.19471C109.492 0.857515 111.749 0.569626 114.384 0.122653C116.024 -0.155724 116.945 -0.0505358 117.358 1.40088C117.455 1.69343 117.56 2.0322 117.619 2.37881C117.627 2.42502 117.764 4.35118 117.917 5.25236C118.109 6.38462 118.598 7.87048 118.618 7.98602C118.779 8.93342 118.473 9.79356 117.898 10.6044C117.763 10.7936 117.564 11.0177 117.383 11.2147C113.992 15.0469 112.21 19.5333 111.453 24.4637C111.241 25.5933 111.356 26.8336 111.406 27.9663C111.523 29.9195 111.506 31.9193 111.835 33.8603C111.945 34.5073 112.109 35.1927 112.303 35.7778C112.373 35.9086 112.393 36.0241 112.416 36.1628C112.467 36.4632 112.434 36.8255 112.392 37.1415C112.379 38.0471 111.95 38.738 111.068 39.0065C110.645 39.1734 110.191 39.298 109.752 39.3725L103.836 40.3762Z" fill="url(#paint3_linear_4993_2728)"/>
<path d="M5.24057 71.3722L4.36327 74.358L6.67844 74.1556L5.29636 71.3674L5.24057 71.3722ZM8.35005 77.5228L7.44505 75.6907L3.88861 76.0016L3.31525 77.963L1.19534 78.1483L3.94179 69.0546L6.2988 68.8485L10.6094 77.3253L8.35005 77.5228ZM16.0503 76.8496L13.8049 77.0459L9.63372 68.5569L11.8373 68.3643L14.7345 74.3367L14.7903 74.3318L16.5792 67.9497L18.6852 67.7656L16.0503 76.8496ZM23.3131 69.7923L22.4358 72.778L24.751 72.5756L23.3689 69.7874L23.3131 69.7923ZM26.4226 75.9428L25.5176 74.1107L21.9612 74.4216L21.3878 76.383L19.2679 76.5683L22.0143 67.4746L24.3713 67.2685L28.682 75.7453L26.4226 75.9428ZM29.2065 66.8458L31.3264 66.6605L32.0946 75.447L29.9747 75.6323L29.2065 66.8458ZM33.3056 66.4875L35.4255 66.3021L36.0412 73.3453L40.5042 72.9551L40.6566 74.6984L34.0737 75.2739L33.3056 66.4875ZM45.6482 67.8397L44.7709 70.8254L47.086 70.623L45.704 67.8348L45.6482 67.8397ZM48.7576 73.9902L47.8526 72.1581L44.2962 72.469L43.7228 74.4304L41.6029 74.6157L44.3494 65.522L46.7064 65.3159L51.017 73.7927L48.7576 73.9902ZM57.685 68.6143C58.7493 68.732 59.6052 69.3599 59.7137 70.6012C59.8454 72.1074 58.7531 73.1164 56.703 73.2956L52.3097 73.6797L51.5416 64.8932L55.6698 64.5323C57.9013 64.3372 58.9896 65.2117 59.1164 66.6622C59.2006 67.6245 58.606 68.3792 57.685 68.6143ZM53.7393 66.4015L53.9027 68.2704L55.7436 68.1094C56.6502 68.0302 56.9914 67.5928 56.9463 67.0768C56.8987 66.5329 56.4868 66.1613 55.5803 66.2406L53.7393 66.4015ZM56.064 69.6835L54.0417 69.8603L54.2112 71.7989L56.2474 71.6209C57.1818 71.5392 57.58 71.1109 57.53 70.5391C57.48 69.9673 57.0123 69.6006 56.064 69.6835ZM60.8026 64.0836L62.9225 63.8982L63.6906 72.6847L61.5707 72.87L60.8026 64.0836ZM64.9016 63.7252L67.0215 63.5399L67.6373 70.583L72.1003 70.1928L72.2527 71.9362L65.6698 72.5117L64.9016 63.7252ZM73.1003 63.0084L75.2202 62.8231L75.9883 71.6096L73.8684 71.7949L73.1003 63.0084ZM82.7512 71.0184L80.6453 71.2025L80.0295 64.1593L76.9752 64.4264L76.8228 62.683L85.0793 61.9612L85.2317 63.7045L82.1355 63.9752L82.7512 71.0184ZM90.796 64.8764L92.5499 61.3081L94.8232 61.1093L91.9084 66.8309L92.2023 70.1921L90.1521 70.3713L89.8582 67.0102L86.0088 61.8799L88.3519 61.6751L90.796 64.8764ZM108.211 64.3657C108.329 65.7186 107.992 66.8442 107.188 67.7718C106.397 68.6982 105.36 69.2104 104.091 69.3214C102.822 69.4324 101.711 69.1078 100.772 68.3327C99.8332 67.5575 99.3057 66.5075 99.1874 65.1546C99.0692 63.8018 99.4064 62.6761 100.197 61.7498C100.987 60.8234 102.024 60.3111 103.294 60.2002C104.563 60.0892 105.673 60.4138 106.612 61.1889C107.565 61.9629 108.093 63.0129 108.211 64.3657ZM106.035 64.556C105.894 62.9381 104.892 61.9295 103.456 62.0551C102.047 62.1783 101.222 63.3466 101.363 64.9644C101.505 66.5822 102.52 67.5896 103.929 67.4665C105.365 67.3409 106.177 66.1738 106.035 64.556ZM112.296 68.4354L110.19 68.6196L109.422 59.8331L115.921 59.2649L116.074 61.0082L111.68 61.3923L111.851 63.3449L115.184 63.0534L115.335 64.7829L112.002 65.0743L112.296 68.4354ZM6.34654 85.3089L8.10044 81.7406L10.3738 81.5418L7.45899 87.2634L7.75284 90.6246L5.70266 90.8038L5.40881 87.4427L1.55938 82.3124L3.90245 82.1076L6.34654 85.3089ZM20.003 85.1268C20.1213 86.4797 19.7841 87.6053 18.9798 88.5329C18.1895 89.4592 17.1521 89.9715 15.883 90.0825C14.6138 90.1934 13.5033 89.8689 12.5643 89.0937C11.6252 88.3186 11.0977 87.2685 10.9795 85.9157C10.8612 84.5629 11.1984 83.4372 11.9888 82.5109C12.7791 81.5845 13.8164 81.0722 15.0856 80.9613C16.3547 80.8503 17.4652 81.1748 18.4043 81.95C19.3573 82.7239 19.8848 83.774 20.003 85.1268ZM17.8273 85.317C17.6859 83.6992 16.6843 82.6906 15.2477 82.8162C13.8391 82.9393 13.0137 84.1077 13.1552 85.7255C13.2966 87.3433 14.3122 88.3507 15.7208 88.2275C17.1573 88.102 17.9688 86.9349 17.8273 85.317ZM25.8181 89.2139C24.7303 89.309 23.7854 89.1105 22.9823 88.6046C22.1792 88.0986 21.7209 87.1971 21.61 85.9279L21.1442 80.6002L23.2502 80.4161L23.6891 85.437C23.811 86.8317 24.3789 87.5409 25.6621 87.4287C26.9452 87.3165 27.3966 86.5322 27.2746 85.1376L26.8345 80.1028L28.9404 79.9187L29.4062 85.2463C29.5172 86.5155 29.2223 87.4829 28.5192 88.1205C27.816 88.7582 26.9199 89.1176 25.8181 89.2139ZM33.2792 83.671L35.1062 83.5113C36.208 83.415 36.7227 83.0327 36.6483 82.182C36.58 81.4009 35.9983 81.0161 34.8965 81.1125L33.0695 81.2722L33.2792 83.671ZM39.3652 87.8609L37.2174 88.0487C37.0154 87.8274 36.8538 87.2654 36.7024 86.337C36.5461 85.3529 36.0718 85.0712 35.1931 85.148L33.4219 85.3028L33.6889 88.3572L31.6108 88.5388L30.8427 79.7524L35.0825 79.3817C37.3558 79.183 38.5654 80.1593 38.7118 81.8329C38.8239 83.116 38.0603 84.026 37.0113 84.2442C37.9616 84.3438 38.5403 84.8553 38.727 85.8649C38.8528 86.5004 38.9488 86.9557 39.015 87.231C39.0813 87.5063 39.1984 87.7209 39.3652 87.8609ZM45.2719 78.4909L49.4706 83.436L49.0097 78.1641L50.9483 77.9946L51.7164 86.7811L50.0289 86.9287L45.4663 81.6781L45.9564 87.2847L44.0039 87.4554L43.2357 78.6689L45.2719 78.4909ZM60.3264 84.2717L60.4788 86.0151L53.7007 86.6077L52.9325 77.8212L59.5852 77.2396L59.7376 78.9829L55.163 79.3828L55.3142 81.1123L58.8707 80.8013L59.0206 82.5168L55.4642 82.8277L55.6264 84.6826L60.3264 84.2717ZM67.847 76.5173L69.9248 82.2802L69.9806 82.2754L70.9432 76.2466L72.9934 76.0674L71.4603 85.055L69.187 85.2538L67.1256 79.5175L67.0698 79.5224L66.035 85.5293L63.7896 85.7256L60.7341 77.1391L62.8401 76.955L64.8482 82.724L64.904 82.7192L65.9363 76.6843L67.847 76.5173ZM77.345 80.1138C77.2267 78.7609 77.564 77.6353 78.3404 76.7101C79.1167 75.785 80.1401 75.2739 81.4093 75.163C82.7342 75.0472 83.7853 75.3347 84.5612 76.0117C85.3371 76.6887 85.822 77.5738 85.9881 78.6695L83.9731 78.93C83.8546 78.3782 83.6027 77.9084 83.2175 77.5205C82.8322 77.1325 82.2839 76.9697 81.5587 77.0331C80.164 77.155 79.378 78.2918 79.5207 79.9236C79.6634 81.5553 80.6347 82.5385 82.0294 82.4165C82.7546 82.3531 83.2663 82.0976 83.5784 81.6487C83.8905 81.1998 84.057 80.6934 84.078 80.1294L86.1076 80.0363C86.1341 81.1442 85.8102 82.1001 85.1635 82.9014C84.5168 83.7028 83.5316 84.1684 82.2067 84.2842C80.9375 84.3951 79.841 84.0694 78.9159 83.293C77.9907 82.5167 77.4633 81.4666 77.345 80.1138ZM96.2425 78.4617C96.3608 79.8145 96.0235 80.9402 95.2192 81.8677C94.4289 82.7941 93.3916 83.3064 92.1224 83.4173C90.8533 83.5283 89.7428 83.2038 88.8037 82.4286C87.8646 81.6534 87.3372 80.6034 87.2189 79.2505C87.1006 77.8977 87.4379 76.7721 88.2282 75.8457C89.0185 74.9194 90.0559 74.4071 91.325 74.2961C92.5942 74.1852 93.7047 74.5097 94.6437 75.2848C95.5968 76.0588 96.1242 77.1088 96.2425 78.4617ZM94.0668 78.6519C93.9253 77.034 92.9237 76.0254 91.4872 76.151C90.0785 76.2742 89.2532 77.4425 89.3946 79.0603C89.536 80.6782 90.5516 81.6855 91.9603 81.5624C93.3968 81.4368 94.2082 80.2697 94.0668 78.6519ZM101.175 76.0349L100.298 79.0206L102.613 78.8182L101.231 76.03L101.175 76.0349ZM104.285 82.1854L103.38 80.3533L99.8231 80.6642L99.2498 82.6256L97.1298 82.8109L99.8763 73.7172L102.233 73.5111L106.544 81.9879L104.285 82.1854ZM106.64 77.5527C106.522 76.1998 106.859 75.0742 107.635 74.1491C108.412 73.2239 109.435 72.7129 110.704 72.6019C112.029 72.4861 113.08 72.7736 113.856 73.4506C114.632 74.1276 115.117 75.0128 115.283 76.1085L113.268 76.3689C113.149 75.8172 112.898 75.3473 112.512 74.9594C112.127 74.5715 111.579 74.4086 110.854 74.472C109.459 74.5939 108.673 75.7307 108.816 77.3625C108.958 78.9943 109.929 79.9774 111.324 79.8555C112.049 79.7921 112.561 79.5365 112.873 79.0876C113.185 78.6388 113.352 78.1323 113.373 77.5684L115.402 77.4752C115.429 78.5831 115.105 79.539 114.458 80.3404C113.812 81.1417 112.826 81.6073 111.502 81.7231C110.232 81.8341 109.136 81.5083 108.211 80.732C107.286 79.9556 106.758 78.9055 106.64 77.5527ZM119.408 80.8632L117.288 81.0486L116.52 72.2621L118.64 72.0768L118.944 75.5495L122.779 75.2142L122.475 71.7415L124.595 71.5561L125.364 80.3426L123.244 80.5279L122.929 76.9297L119.094 77.265L119.408 80.8632Z" fill="#553631"/>
<path fill-rule="evenodd" clip-rule="evenodd" d="M140.921 53.8793C137.541 49.923 136.126 43.869 134.048 39.0898C133.09 36.884 130.085 31.8801 130.102 30.3381C130.132 27.6321 131.712 27.9203 133.222 28.6972C134.733 29.4741 138.789 35.7759 140.882 36.3321C142.201 36.6826 143.204 35.8254 143.333 33.8875C143.36 33.4715 142.716 30.2611 142.606 28.596C142.248 23.1992 141.023 18.0595 141.647 12.5503C141.814 11.0699 141.807 7.93411 143.08 6.85989C145.152 5.11136 147.39 8.98588 147.706 10.3261C148.436 13.4312 149.358 16.4594 149.873 19.6432C150.169 21.4757 150.032 23.341 150.38 25.1752C150.575 26.2072 150.828 29.346 152.471 29.2787C152.72 29.2684 152.71 28.8513 152.703 28.6961C152.622 26.8827 153.631 23.4439 153.761 21.6C155.178 14.8037 155.015 13.2522 156.707 9.46334C157.289 8.49408 158.787 6.19684 160.221 6.31578C162.689 6.52041 162.555 9.10351 162.4 11.0283C161.994 16.0854 160.445 21.1057 159.461 26.0876C159.314 26.8291 158.108 31.3511 158.942 31.7801C159.897 32.2713 161.342 28.0928 161.704 27.3789C164.147 22.5698 166.938 17.5736 170.828 13.7657C171.47 13.1373 174.417 9.74081 175.645 10.8612C177.367 12.4336 176.426 16.068 175.679 17.8155C173.837 22.1243 170.752 25.8365 168.597 30.0013C167.986 31.1819 166.598 33.5434 167.051 34.9454C167.597 36.637 169.607 34.0366 170.188 33.572C172.399 31.8051 174.767 29.5182 177.365 28.3577C178.497 27.8519 179.664 26.9116 180.65 28.065C182.169 29.843 179.017 33.9715 177.891 35.193C173.649 39.7901 168.491 43.4365 165.05 48.7806C163.553 51.1049 160.721 55.9245 158.05 57.0308C152.691 59.2503 144.88 58.5142 140.921 53.8793Z" fill="#72BD6F"/>
<defs>
<linearGradient id="paint0_linear_4993_2728" x1="67.4546" y1="55.1552" x2="67.4546" y2="0" gradientUnits="userSpaceOnUse">
<stop stop-color="#553631"/>
<stop offset="1" stop-color="#74534D"/>
</linearGradient>
<linearGradient id="paint1_linear_4993_2728" x1="67.4546" y1="55.1552" x2="67.4546" y2="0" gradientUnits="userSpaceOnUse">
<stop stop-color="#553631"/>
<stop offset="1" stop-color="#74534D"/>
</linearGradient>
<linearGradient id="paint2_linear_4993_2728" x1="67.4546" y1="55.1552" x2="67.4546" y2="0" gradientUnits="userSpaceOnUse">
<stop stop-color="#553631"/>
<stop offset="1" stop-color="#74534D"/>
</linearGradient>
<linearGradient id="paint3_linear_4993_2728" x1="67.4546" y1="55.1552" x2="67.4546" y2="0" gradientUnits="userSpaceOnUse">
<stop stop-color="#553631"/>
<stop offset="1" stop-color="#74534D"/>
</linearGradient>
</defs>
</svg>
