<svg width="20" height="22" viewBox="0 0 20 22" fill="none" xmlns="http://www.w3.org/2000/svg">
<path d="M4.32211 2.3284C3.45681 2.64335 3.01104 3.59929 3.32599 4.46459C3.33083 4.4779 3.34021 4.48937 3.34505 4.50269C3.20808 4.53569 3.06992 4.55779 2.93445 4.6071C0.988503 5.31537 -0.015089 7.46758 0.693178 9.41352C0.827421 9.78235 1.0259 10.1046 1.25303 10.3997C0.457799 11.4846 0.200111 12.9318 0.694616 14.2905C1.18912 15.6491 2.31679 16.5921 3.62334 16.9121C3.63905 17.2841 3.69412 17.6585 3.82836 18.0274C4.49245 19.8519 6.42395 20.8269 8.26659 20.3611C8.76565 21.2108 9.8117 21.6139 10.771 21.2648C11.8524 20.8712 12.4097 19.676 12.0161 18.5945L11.8736 18.203C11.5592 17.3393 10.6012 16.8925 9.73743 17.2069C9.30439 17.3645 8.82666 17.1411 8.66933 16.7088C8.512 16.2766 8.73435 15.7983 9.16739 15.6407C9.74061 15.4321 10.3314 15.4056 10.8922 15.5066L8.44507 8.78312C7.97361 9.52228 7.27486 10.1218 6.3892 10.4442C5.95616 10.6018 5.47844 10.3784 5.32111 9.94613C5.16378 9.51387 5.38612 9.03565 5.81917 8.87804C7.11438 8.40662 7.78477 6.96897 7.31335 5.67376L6.4583 3.32452C6.14335 2.45922 5.18741 2.01346 4.32211 2.3284ZM9.02057 0.618303C8.15527 0.933246 7.70951 1.88919 8.02445 2.75449L8.8795 5.10372C9.35092 6.39893 10.7886 7.06932 12.0838 6.5979C12.5168 6.44029 12.9945 6.6637 13.1519 7.09596C13.3092 7.52822 13.0869 8.00644 12.6538 8.16406C11.7682 8.48641 10.8478 8.47702 10.0118 8.21462L13.5823 18.0245C13.9759 19.1059 15.1711 19.6633 16.2525 19.2696C17.2118 18.9205 17.754 17.9393 17.5901 16.9676C19.2618 16.1587 20.1031 14.2422 19.5216 12.4523C19.0973 12.8019 18.6121 13.09 18.0663 13.2886C17.6332 13.4462 17.1555 13.2228 16.9982 12.7905C16.8408 12.3583 17.0632 11.8801 17.4962 11.7225C19.2237 11.0937 20.1172 9.17755 19.4885 7.45008C18.994 6.09144 17.8663 5.14842 16.5597 4.82849C16.544 4.45642 16.489 4.08202 16.3547 3.71319C15.6465 1.76724 13.4942 0.763648 11.5483 1.47191C11.4128 1.52122 11.2928 1.5931 11.1666 1.65586C11.1618 1.64255 11.1616 1.62774 11.1568 1.61442C10.8418 0.749123 9.88587 0.303359 9.02057 0.618303Z" fill="#1B3D6A"/>
</svg>
