<svg width="24" height="29" viewBox="0 0 24 29" fill="none" xmlns="http://www.w3.org/2000/svg">
<path d="M9.18478 0.844829C8.93307 0.763043 8.66323 0.857342 8.54103 1.07061C7.94543 2.11557 6.25673 5.13063 5.78654 6.57773C4.63833 10.1115 7.2225 11.9279 7.2225 11.9279L3.63436 22.9711C3.39668 23.7026 3.84694 24.5052 4.6394 24.7627C5.43186 25.0202 6.26791 24.6355 6.50559 23.904L10.0937 12.8608C10.0937 12.8608 13.252 12.9103 14.4002 9.37648C14.8704 7.92938 15.2764 4.49755 15.4088 3.30208C15.4353 3.05771 15.2724 2.82282 15.0207 2.74103C14.7307 2.64681 14.4249 2.78754 14.3379 3.05522L12.6711 8.18512C12.5689 8.49963 12.2099 8.66481 11.8692 8.5541C11.5543 8.45179 11.3615 8.14767 11.4209 7.84759L12.494 2.39507C12.5439 2.14071 12.3801 1.88304 12.1121 1.79597L12.1027 1.79293L12.0934 1.78989C11.8254 1.70282 11.5412 1.81585 11.4317 2.05181L9.09495 7.09375C8.96691 7.37056 8.63243 7.50241 8.31755 7.4001C7.97683 7.2894 7.78351 6.94477 7.8857 6.63026L9.5525 1.50036C9.63948 1.23268 9.47477 0.939053 9.18478 0.844829Z" fill="#A94E08"/>
<path d="M22.2763 5.21988C22.4267 5.18937 22.5816 5.19801 22.7267 5.24499C22.9552 5.31922 23.144 5.48348 23.2517 5.70165C23.3594 5.91981 23.3772 6.17401 23.301 6.40832L16.5553 27.1695C16.3176 27.901 15.5459 28.3066 14.8327 28.0748C14.1195 27.8431 13.7335 27.0613 13.9712 26.3298L16.682 17.9871L15.908 16.4765C15.6771 15.918 15.6536 15.2901 15.8422 14.7097L16.4107 12.96C17.8302 8.59134 21.8665 5.41951 21.8665 5.41951C21.985 5.31905 22.1259 5.25039 22.2763 5.21988Z" fill="#A94E08"/>
</svg>
