<svg width="22" height="19" viewBox="0 0 22 19" fill="none" xmlns="http://www.w3.org/2000/svg">
<path d="M16.8206 1.22711C13.8011 0.856349 11.7521 3.09339 11.7521 3.09339C11.7521 3.09339 10.3052 0.427108 7.28558 0.0563504C4.12617 -0.331577 1.27143 1.74846 0.90869 4.70272C0.645794 6.84384 1.50233 9.0801 2.77875 11.1481L3.38461 6.21371L4.25858 6.32102C4.74189 6.38036 5.0877 6.79363 5.03221 7.24555L4.67239 10.1761L10.8038 5.70864C11.1847 5.43106 11.7371 5.49888 12.0396 5.86037C12.342 6.22186 12.2786 6.73835 11.8977 7.01592L8.1183 9.76967L8.57165 10.3114L13.3253 6.84779C13.7063 6.57021 14.2586 6.63803 14.5611 6.99953C14.712 7.17981 14.7719 7.39953 14.7463 7.60874C14.7206 7.81795 14.6092 8.01664 14.4192 8.15508L9.66556 11.6187L10.1189 12.1605L13.8983 9.40676C14.2792 9.12919 14.8316 9.19701 15.1341 9.5585C15.2849 9.73878 15.3449 9.95851 15.3192 10.1677C15.2935 10.3769 15.1822 10.5756 14.9922 10.7141L11.2128 13.4678L11.6662 14.0096L13.4969 12.6756C13.8779 12.3981 14.4302 12.4659 14.7327 12.8274C14.8836 13.0077 14.9435 13.2274 14.9178 13.4366C14.8921 13.6458 14.7808 13.8445 14.5908 13.9829L8.84918 18.1664C9.11543 18.404 9.45579 18.5727 9.84558 18.6206C10.2406 18.6691 10.6172 18.5859 10.9354 18.4151L10.9383 18.4205C14.1534 16.6203 21.2478 12.4602 21.884 7.27817C22.2468 4.32391 19.98 1.61503 16.8206 1.22711Z" fill="#B20202"/>
</svg>
