<svg width="21" height="26" viewBox="0 0 21 26" fill="none" xmlns="http://www.w3.org/2000/svg">
<path d="M12.3149 0.223434C11.6478 0.129683 10.9714 0.300522 10.4345 0.69837C9.89758 1.09622 9.54411 1.68848 9.45186 2.34488C9.35961 3.00127 9.53614 3.66802 9.9426 4.19846C10.3491 4.72889 10.9522 5.07955 11.6193 5.17331C12.2863 5.26706 12.9627 5.09622 13.4997 4.69837C14.0366 4.30052 14.3901 3.70826 14.4823 3.05186C14.5746 2.39547 14.398 1.72872 13.9916 1.19828C13.5851 0.66785 12.982 0.317186 12.3149 0.223434ZM4.57663 4.18353C3.37938 4.01527 2.26582 4.69997 1.85729 5.76717L0.311627 9.55059C0.238912 9.73218 0.179483 9.92053 0.150961 10.1235C-0.0411804 11.4906 0.928945 12.7566 2.31835 12.9519C2.50649 12.9783 2.69041 12.9765 2.8719 12.9627C2.87699 12.817 2.87051 12.6731 2.89097 12.5276C2.93229 12.2336 3.005 11.9414 3.10554 11.6567L5.65052 4.61247C5.33914 4.39709 4.98007 4.24023 4.57663 4.18353ZM19.5221 7.28561C19.4559 7.27734 19.3887 7.28199 19.3244 7.29928C19.2602 7.31657 19.2001 7.34617 19.1475 7.38639C19.095 7.42661 19.051 7.47666 19.0182 7.53369C18.9854 7.59071 18.9643 7.65359 18.9562 7.71874L18.8174 8.70678L15.9031 10.6081L13.6929 8.78316C13.6789 8.83167 13.6705 8.8794 13.6545 8.92762L12.801 11.4932C14.1329 12.1559 15.4359 12.7764 15.7367 12.8187C15.9772 12.8525 16.2286 12.801 16.4399 12.6631L18.4454 11.3538L16.591 24.5483C16.5808 24.6138 16.584 24.6806 16.6003 24.745C16.6166 24.8093 16.6457 24.8699 16.686 24.9232C16.7262 24.9765 16.7768 25.0214 16.8347 25.0554C16.8926 25.0894 16.9568 25.1117 17.0235 25.121C17.0901 25.1304 17.158 25.1266 17.223 25.11C17.2881 25.0933 17.3491 25.064 17.4025 25.0239C17.4558 24.9838 17.5005 24.9336 17.5339 24.8762C17.5673 24.8188 17.5888 24.7554 17.5971 24.6897L19.5748 10.6174L19.9698 10.3594C20.4363 10.0544 20.5615 9.43391 20.2507 8.9733C20.1481 8.82245 20.0052 8.72296 19.8517 8.64709L19.9623 7.86014C19.9727 7.79398 19.9694 7.72639 19.9528 7.66137C19.9361 7.59635 19.9064 7.53524 19.8653 7.48165C19.8242 7.42806 19.7727 7.3831 19.7137 7.34942C19.6548 7.31575 19.5896 7.29405 19.5221 7.28561ZM9.46598 5.88021C8.23095 5.70664 7.08631 6.44179 6.71205 7.56744L6.70757 7.57075L5.0274 12.3113C5.02647 12.3138 5.02526 12.3162 5.02434 12.3187L5.0238 12.3226C4.96833 12.4779 4.92696 12.6409 4.90314 12.8104C4.79587 13.5737 5.06066 14.2978 5.54915 14.8296L5.55375 14.8539L9.0434 18.4399L9.57861 22.7445L9.60744 23.2237C9.61309 23.4614 9.70451 23.6896 9.8653 23.8676C10.0261 24.0455 10.2457 24.1616 10.4849 24.1949C10.7517 24.2324 11.0223 24.1641 11.2371 24.0049C11.4518 23.8458 11.5932 23.6089 11.6301 23.3463C11.6391 23.2814 11.6417 23.2157 11.6376 23.1502L11.3272 18.059C11.3191 17.9212 11.2821 17.7864 11.2185 17.6631L9.81239 14.0091C9.81543 14.0006 9.81521 13.9908 9.81816 13.9823L11.4903 9.25639L11.4886 9.25418C11.5555 9.0811 11.6084 8.90031 11.6353 8.70891C11.8273 7.3434 10.8563 6.07669 9.46598 5.88021ZM4.41127 15.9966L3.65832 17.6042L0.868135 21.1891L0.776073 21.3023L0.777766 21.3045C0.763308 21.3218 0.749447 21.3396 0.736209 21.3579L0.726175 21.3722C0.640224 21.4977 0.584468 21.6409 0.563124 21.791C0.526224 22.0535 0.596833 22.3202 0.759419 22.5324C0.922005 22.7446 1.16325 22.8848 1.43008 22.9223C1.58878 22.9446 1.7504 22.9296 1.90176 22.8785C2.05311 22.8275 2.18989 22.7419 2.30094 22.6287L2.3029 22.629L2.32188 22.608C2.32263 22.6074 2.32337 22.6069 2.32412 22.6063L6.37327 18.0765L4.41127 15.9966Z" fill="#5B5C1F"/>
</svg>
