<svg width="22" height="25" viewBox="0 0 22 25" fill="none" xmlns="http://www.w3.org/2000/svg">
<path d="M9.6615 0.147334C8.82824 0.249646 8.06632 0.650839 7.54335 1.26266C7.02038 1.87447 6.77921 2.64679 6.87288 3.40972C6.96656 4.17265 7.38741 4.86369 8.04285 5.33081C8.6983 5.79794 9.53465 6.00289 10.3679 5.90057C11.2012 5.79826 11.9631 5.39707 12.4861 4.78525C13.009 4.17344 13.2502 3.40111 13.1565 2.63819C13.0629 1.87526 12.642 1.18422 11.9866 0.717097C11.3311 0.249972 10.4948 0.0450218 9.6615 0.147334ZM1.1779 8.97562C1.0389 8.99087 0.904001 9.03126 0.781037 9.09445C0.658073 9.15765 0.549498 9.24238 0.461622 9.34373C0.373745 9.44509 0.30832 9.56104 0.269148 9.68484C0.229976 9.80865 0.217839 9.93784 0.233442 10.0649C0.249044 10.192 0.292076 10.3144 0.360036 10.4251C0.427996 10.5357 0.519528 10.6324 0.629314 10.7095C0.7391 10.7866 0.864949 10.8425 0.999548 10.8741C1.13415 10.9057 1.27481 10.9122 1.41337 10.8934L7.74118 10.4814L9.3414 23.5142C9.40851 24.0608 9.94815 24.4454 10.5451 24.3721C11.1148 24.3021 11.5377 23.8396 11.5115 23.3143L11.1961 16.9579C11.1843 16.7054 11.3876 16.482 11.663 16.4482C11.7614 16.4361 12.7091 16.3102 12.7091 16.3102L14.8688 17.564L12.6152 19.3501L12.6075 19.3549C12.373 19.4991 12.2086 19.7218 12.1505 19.9738C12.0923 20.2259 12.1451 20.4867 12.2972 20.6989C12.4493 20.9111 12.6884 21.0573 12.9618 21.1054C13.2351 21.1535 13.5204 21.0995 13.7549 20.9553L17.7086 18.5232C17.8399 18.4424 17.9505 18.3362 18.0325 18.2122C18.1145 18.0882 18.1657 17.9497 18.1826 17.8065C18.1994 17.6634 18.1813 17.5193 18.1297 17.3847C18.0781 17.2501 17.9943 17.1283 17.8842 17.0283L14.4794 13.4124L14.0248 9.70988L20.2643 8.57876C20.4033 8.56352 20.5382 8.52313 20.6612 8.45994C20.7842 8.39674 20.8927 8.312 20.9806 8.21065C21.0685 8.1093 21.1339 7.99335 21.1731 7.86954C21.2123 7.74574 21.2244 7.61654 21.2088 7.48947C21.1932 7.36239 21.1502 7.23997 21.0822 7.12932C21.0142 7.01867 20.9227 6.92199 20.8129 6.84491C20.7031 6.76783 20.5773 6.71187 20.4427 6.68031C20.3081 6.64874 20.1674 6.64218 20.0289 6.66102L1.1779 8.97562Z" fill="#907300"/>
</svg>
