<svg width="14" height="14" viewBox="0 0 14 14" fill="none" xmlns="http://www.w3.org/2000/svg">
<path d="M5.40376 2.81948C6.98617 4.3765 6.9997 7.00107 6.9997 7.00107C6.9997 7.00107 4.44762 7.10121 2.86521 5.54419C1.2828 3.98716 1.26927 1.3626 1.26927 1.3626C1.26927 1.3626 3.82134 1.26246 5.40376 2.81948Z" fill="#E55733"/>
<path d="M8.59624 2.81924C7.01383 4.37626 7.0003 7.00083 7.0003 7.00083C7.0003 7.00083 9.55238 7.10096 11.1348 5.54394C12.7172 3.98692 12.7307 1.36235 12.7307 1.36235C12.7307 1.36235 10.1787 1.26222 8.59624 2.81924Z" fill="#E55733"/>
<path d="M5.40376 11.181C6.98617 9.62393 6.9997 6.99936 6.9997 6.99936C6.9997 6.99936 4.44762 6.89923 2.86521 8.45625C1.2828 10.0133 1.26927 12.6378 1.26927 12.6378C1.26927 12.6378 3.82134 12.738 5.40376 11.181Z" fill="#E55733"/>
<path d="M8.59624 11.181C7.01383 9.62393 7.0003 6.99936 7.0003 6.99936C7.0003 6.99936 9.55238 6.89923 11.1348 8.45625C12.7172 10.0133 12.7307 12.6378 12.7307 12.6378C12.7307 12.6378 10.1787 12.738 8.59624 11.181Z" fill="#E55733"/>
</svg>
