<svg width="57" height="65" viewBox="0 0 57 65" fill="none" xmlns="http://www.w3.org/2000/svg">
<path fill-rule="evenodd" clip-rule="evenodd" d="M44.5172 64.9043C40.3941 66.0801 30.5373 56.0807 27.3848 53.4346C22.7889 49.5768 22.817 49.5823 18.1344 45.8011C14.6674 43.0015 10.7302 40.2085 7.8984 36.7377C7.11658 35.7793 5.39807 33.1902 4.97029 32.5532C2.58022 28.9942 -0.203011 24.8283 0.011693 20.3306C0.156876 17.2902 3.45727 15.8211 6.02612 15.1709C12.2009 13.6082 18.4754 16.0892 23.2163 19.9392C25.8132 22.048 27.8199 24.6439 30.0042 27.1526C30.597 27.8333 31.2102 28.4962 31.8113 29.1697C32.0816 29.4727 32.3398 29.7865 32.6185 30.0819C32.7992 30.2735 32.9764 30.4724 33.1884 30.6296C33.2751 30.6939 33.4567 30.8332 33.4969 30.7329C33.678 30.2798 33.6747 29.7747 33.7235 29.2909C33.9061 27.48 33.9096 24.8859 34.0239 23.2236C34.1148 21.9022 34.4222 19.8497 34.7606 18.5833C35.2055 16.9187 35.6612 15.253 36.2478 13.631C36.8348 12.0073 37.5554 10.4318 38.2762 8.8608C38.6165 8.11901 39.02 7.40608 39.4281 6.69823C41.1993 3.6265 44.0288 -0.110796 48.025 0.00251539C52.6667 0.134038 55.0186 5.31158 55.8767 9.1544C56.1702 10.4689 56.4392 11.7922 56.6056 13.1293C58.1891 25.8535 54.7521 38.6042 50.7882 50.6265C50.2343 52.3063 47.1051 64.1656 44.5172 64.9043Z" fill="#E55733"/>
</svg>