<svg width="125" height="134" viewBox="0 0 125 134" fill="none" xmlns="http://www.w3.org/2000/svg">
<path d="M58.0359 93.9336C55.2797 93.7212 52.8697 93.4223 52.1493 93.2253C50.9617 92.8509 50.4794 91.7669 50.5617 90.6982C50.6181 89.967 51.0164 88.1022 51.0966 87.0616C51.166 86.1616 51.006 85.3005 49.6237 84.8828C48.9898 84.6642 48.3148 84.6121 48.2023 84.6035C42.3243 84.1505 36.5221 83.8164 35.4815 83.7362C35.369 83.7276 34.9471 83.6951 34.5296 83.6063C31.9335 83.1516 31.7715 81.5831 31.8972 79.9519C31.9535 79.2206 32.2656 75.9063 32.3219 75.1751C32.4346 73.7126 32.7008 73.1956 33.0622 72.5445C33.5534 71.677 36.3925 67.1428 37.877 64.7676C38.8464 63.2014 40.9303 59.6559 44.4056 54.2088C46.5349 50.8082 44.7193 53.8086 47.2014 49.8694C47.7251 48.9479 48.8589 47.4509 51.6995 47.6698L57.6337 48.1272C62.9492 48.5369 63.0011 48.5974 63.5355 48.6386C64.0136 48.6755 64.4073 48.7058 64.8205 48.8508C66.1185 49.2621 66.6484 50.0951 66.6721 51.2568C66.6503 51.9059 66.5572 52.7474 66.4965 53.5349C66.4575 54.0411 64.921 71.7746 64.8235 73.0402C64.7433 74.0808 64.8038 74.7644 66.5301 75.4916C67.218 75.7427 67.4149 75.7578 67.7675 75.9547C68.5874 76.3291 69.0719 77.0172 69.048 78.0621C69.0023 79.3883 68.7466 82.707 68.7401 82.7913C68.6208 84.3382 68.4844 85.3744 66.3187 85.9431C65.568 86.1399 64.7242 86.0748 64.1963 86.6849C63.8544 87.0829 63.7051 87.5523 63.6617 88.1148C63.6292 88.5367 63.6768 88.6535 63.668 89.5016C63.6203 90.1203 63.6397 90.6028 63.5942 91.1934C63.4598 92.9371 62.7327 93.9278 61.5645 94.0358C61.1339 94.1158 59.9203 94.0789 58.0359 93.9336ZM46.9123 74.1777C47.3623 74.2124 47.7603 74.1865 48.5478 74.2472C48.6322 74.2537 49.4197 74.3144 50.1855 74.2885C51.4122 74.1567 52.1587 73.2806 52.2411 72.2119L52.4146 69.2264C52.5014 67.3659 52.4689 67.7877 52.4776 67.6752C52.6705 65.1722 52.9259 64.0602 53.2809 62.7579C53.3523 62.5653 53.4368 62.204 53.4606 61.8947C53.5148 61.1916 53.3375 60.5555 52.6062 60.4991C51.7063 60.4298 50.8948 61.414 50.4469 62.4546C49.038 65.6844 48.287 67.3523 46.0172 70.3742C45.5757 70.9626 45.1018 71.6051 45.0412 72.3926C45.0195 72.6738 45.0238 72.9854 45.2249 73.3121C45.5969 73.9915 46.1529 74.1192 46.9123 74.1777Z" fill="url(#paint0_linear_4993_2727)"/>
<path d="M87.5497 96.6326C84.2873 96.3812 81.7799 95.8767 79.3939 94.5329C76.7114 92.9965 74.769 90.6683 73.3761 88.1845C71.5377 84.8742 70.7723 81.59 70.6431 77.7607C70.6131 75.5799 70.6697 73.3776 70.817 71.4651C71.0706 68.1746 71.677 64.3454 73.0448 60.9144C76.2694 52.8452 82.6088 49.5145 90.5961 50.13C93.2398 50.3338 96.6666 51.0223 99.3727 52.9849C102.429 55.1726 104.395 58.6625 105.485 61.7737C107.129 66.5118 106.973 68.5368 106.684 72.2773C106.247 77.9584 106.076 79.4447 105.673 81.3657C104.504 86.6227 102.106 90.9362 97.9129 93.9515C95.4572 95.7143 92.6597 96.7718 89.2977 96.7108C88.5059 96.7063 87.6622 96.6413 87.5497 96.6326ZM87.6379 85.2097C88.5379 85.2791 89.4098 84.9785 90.1411 84.2993C90.9331 83.5681 91.6666 82.493 92.0735 81.2513C92.7683 79.2112 93.141 74.7416 93.2386 73.476C93.4055 71.3105 93.4599 68.7684 93.2915 66.9165C93.1921 66.0035 92.9954 64.5172 92.0761 63.2299C91.3148 62.0961 90.4235 61.5465 89.3548 61.4641C88.0892 61.3666 86.7738 61.9159 85.9168 63.4907C85.2568 64.713 84.9192 65.4225 84.6139 66.8136C84.2827 68.1743 83.8951 70.6341 83.7369 72.6872C83.6025 74.4309 83.5697 77.0594 83.6797 78.9352C83.7682 80.3566 84.153 82.3383 85.0723 83.6257C85.8337 84.7594 86.7942 85.1447 87.6379 85.2097Z" fill="url(#paint1_linear_4993_2727)"/>
<path d="M24.5696 113.445C24.6126 114.997 24.1514 116.258 23.1709 117.262C22.2064 118.265 20.9882 118.779 19.5327 118.819C18.0773 118.86 16.8324 118.414 15.8137 117.466C14.795 116.518 14.2646 115.284 14.2215 113.733C14.1785 112.181 14.6397 110.92 15.6042 109.917C16.5687 108.914 17.7869 108.4 19.2424 108.359C20.6978 108.319 21.9427 108.764 22.9614 109.713C23.9961 110.66 24.5265 111.894 24.5696 113.445ZM22.0745 113.515C22.023 111.659 20.9488 110.441 19.3014 110.486C17.686 110.531 16.6651 111.808 16.7166 113.663C16.7681 115.519 17.8583 116.737 19.4737 116.692C21.121 116.646 22.126 115.37 22.0745 113.515ZM28.9535 118.366L26.5384 118.433L26.2588 108.357L33.7119 108.15L33.7674 110.149L28.7293 110.289L28.7915 112.528L32.614 112.422L32.6691 114.405L28.8465 114.511L28.9535 118.366ZM41.5943 112.637L43.6895 112.578C44.953 112.543 45.5661 112.142 45.539 111.167C45.5142 110.271 44.8766 109.792 43.6131 109.828L41.5179 109.886L41.5943 112.637ZM48.253 117.83L45.7899 117.898C45.5744 117.632 45.4283 116.98 45.3186 115.911C45.2071 114.777 44.6851 114.424 43.6775 114.452L41.6462 114.508L41.7435 118.011L39.3604 118.077L39.0807 108.001L43.9428 107.866C46.5498 107.793 47.8635 108.989 47.9168 110.909C47.9576 112.38 47.0246 113.366 45.8131 113.544C46.8905 113.722 47.516 114.345 47.6603 115.509C47.7607 116.243 47.8394 116.769 47.8962 117.087C47.9531 117.406 48.0721 117.659 48.253 117.83ZM57.7763 115.565L57.8318 117.564L50.0588 117.78L49.7791 107.704L57.4081 107.492L57.4636 109.491L52.2176 109.637L52.2727 111.62L56.3511 111.507L56.4057 113.474L52.3273 113.587L52.3864 115.714L57.7763 115.565ZM59.1779 113.941L61.3988 113.8C61.5174 115.189 62.6045 115.719 63.8361 115.685C64.9076 115.655 65.5674 115.204 65.5492 114.549C65.531 113.893 64.9343 113.733 64.0498 113.582L62.1532 113.298C60.5454 113.039 59.385 112.175 59.3375 110.463C59.2824 108.48 60.8156 107.205 63.2467 107.138C65.9816 107.062 67.5072 108.396 67.6169 110.618L65.3796 110.744C65.2832 109.578 64.4351 109.009 63.2835 109.041C62.2599 109.07 61.6957 109.502 61.7148 110.189C61.7307 110.765 62.2003 110.96 62.9241 111.084L64.8207 111.368C66.8781 111.679 67.8661 112.676 67.9118 114.323C67.9407 115.363 67.5626 116.157 66.7776 116.707C65.9925 117.257 65.0245 117.556 63.8889 117.588C62.5614 117.625 61.4489 117.336 60.5511 116.704C59.6692 116.072 59.2116 115.157 59.1779 113.941ZM77.658 115.013L77.7135 117.012L69.9405 117.228L69.6608 107.152L77.2898 106.94L77.3453 108.939L72.0994 109.085L72.1544 111.068L76.2328 110.955L76.2874 112.922L72.209 113.035L72.2681 115.162L77.658 115.013ZM83.9622 109.524L82.7586 112.871L85.4136 112.797L84.0262 109.522L83.9622 109.524ZM87.092 116.752L86.1839 114.6L82.1055 114.713L81.3182 116.912L78.8872 116.98L82.6379 106.792L85.3409 106.717L89.683 116.68L87.092 116.752ZM93.3993 111.199L95.4945 111.14C96.758 111.105 97.3712 110.704 97.3441 109.729C97.3192 108.833 96.6817 108.354 95.4182 108.39L93.323 108.448L93.3993 111.199ZM100.058 116.392L97.595 116.46C97.3795 116.194 97.2333 115.542 97.1236 114.473C97.0121 113.339 96.4901 112.986 95.4825 113.014L93.4513 113.07L93.5485 116.573L91.1654 116.639L90.8857 106.563L95.7479 106.428C98.3549 106.355 99.6686 107.551 99.7218 109.471C99.7627 110.942 98.8297 111.928 97.6181 112.106C98.6955 112.284 99.321 112.907 99.4654 114.071C99.5658 114.805 99.6444 115.331 99.7013 115.649C99.7581 115.968 99.8772 116.221 100.058 116.392ZM101.276 111.316C101.233 109.765 101.694 108.503 102.643 107.501C103.591 106.498 104.794 105.984 106.249 105.944C107.768 105.902 108.948 106.301 109.787 107.126C110.626 107.951 111.119 108.994 111.235 110.255L108.918 110.416C108.82 109.778 108.565 109.225 108.152 108.756C107.739 108.288 107.124 108.065 106.292 108.088C104.693 108.132 103.719 109.376 103.771 111.247C103.823 113.118 104.864 114.306 106.464 114.261C107.296 114.238 107.897 113.981 108.283 113.491C108.67 113 108.894 112.433 108.956 111.791L111.278 111.823C111.233 113.089 110.799 114.157 110.006 115.027C109.214 115.898 108.059 116.362 106.539 116.404C105.084 116.444 103.855 115.998 102.852 115.05C101.85 114.101 101.319 112.868 101.276 111.316ZM115.618 115.96L113.187 116.027L112.907 105.951L115.338 105.884L115.449 109.866L119.847 109.744L119.737 105.762L122.168 105.694L122.447 115.77L120.016 115.838L119.902 111.711L115.503 111.834L115.618 115.96ZM19.5051 125.318L18.3015 128.665L20.9564 128.591L19.569 125.317L19.5051 125.318ZM22.6348 132.546L21.7268 130.395L17.6483 130.508L16.861 132.707L14.43 132.774L18.1807 122.586L20.8837 122.511L25.2258 132.474L22.6348 132.546ZM28.7637 122.292L33.2178 128.219L33.05 122.173L35.2731 122.112L35.5528 132.188L33.6176 132.242L28.7689 125.942L28.9474 132.371L26.7082 132.433L26.4286 122.357L28.7637 122.292ZM37.8283 132.125L37.5486 122.049L41.4511 121.94C43.0985 121.894 44.4064 122.306 45.3909 123.175C46.3914 124.044 46.9054 125.262 46.9489 126.83C46.9924 128.397 46.5468 129.642 45.596 130.565C44.6613 131.487 43.3782 131.971 41.7308 132.016L37.8283 132.125ZM40.2061 130.138L41.5176 130.101C43.4209 130.049 44.4925 128.866 44.4374 126.883C44.3837 124.948 43.2477 123.811 41.3445 123.864L40.033 123.9L40.2061 130.138ZM51.82 128.151L54.0409 128.009C54.1595 129.398 55.2466 129.928 56.4781 129.894C57.5497 129.865 58.2095 129.414 58.1913 128.758C58.1731 128.103 57.5764 127.943 56.6919 127.792L54.7953 127.508C53.1875 127.249 52.027 126.384 51.9795 124.673C51.9245 122.69 53.4577 121.415 55.8888 121.347C58.6237 121.271 60.1493 122.606 60.259 124.827L58.0216 124.954C57.9252 123.788 57.0771 123.219 55.9256 123.251C54.902 123.279 54.3377 123.711 54.3568 124.399C54.3728 124.975 54.8424 125.17 55.5661 125.294L57.4627 125.577C59.5201 125.888 60.5082 126.885 60.5539 128.533C60.5828 129.572 60.2047 130.367 59.4196 130.917C58.6346 131.467 57.6665 131.766 56.531 131.798C55.2035 131.834 54.091 131.545 53.1932 130.914C52.3113 130.282 51.8537 129.366 51.82 128.151ZM67.5843 131.299L65.1692 131.366L64.945 123.289L61.4423 123.386L61.3868 121.387L70.8552 121.124L70.9107 123.123L67.3601 123.222L67.5843 131.299ZM77.3562 131.219C76.1087 131.254 75.0442 130.964 74.1623 130.332C73.2805 129.7 72.8189 128.64 72.7785 127.185L72.6089 121.075L75.024 121.008L75.1838 126.766C75.2282 128.365 75.8279 129.213 77.2994 129.172C78.7708 129.131 79.339 128.267 79.2946 126.668L79.1344 120.894L81.5494 120.827L81.719 126.937C81.7594 128.392 81.3573 129.476 80.5119 130.156C79.6664 130.835 78.6197 131.184 77.3562 131.219ZM84.0106 130.843L83.7309 120.767L87.6334 120.658C89.2807 120.613 90.5887 121.024 91.5731 121.893C92.5736 122.762 93.0876 123.98 93.1311 125.548C93.1746 127.115 92.729 128.36 91.7783 129.283C90.8435 130.205 89.5604 130.689 87.913 130.734L84.0106 130.843ZM86.3883 128.856L87.6998 128.82C89.6031 128.767 90.6747 127.585 90.6197 125.601C90.5659 123.666 89.43 122.529 87.5267 122.582L86.2152 122.618L86.3883 128.856ZM94.8041 120.459L97.2352 120.392L97.5148 130.468L95.0838 130.535L94.8041 120.459ZM107.502 128.19L107.557 130.189L99.7845 130.405L99.5048 120.329L107.134 120.117L107.189 122.116L101.943 122.262L101.998 124.245L106.077 124.132L106.131 126.099L102.053 126.212L102.112 128.339L107.502 128.19ZM108.904 126.566L111.125 126.425C111.243 127.814 112.33 128.344 113.562 128.31C114.633 128.28 115.293 127.83 115.275 127.174C115.257 126.518 114.66 126.359 113.776 126.207L111.879 125.924C110.271 125.664 109.111 124.8 109.063 123.089C109.008 121.105 110.541 119.83 112.972 119.763C115.707 119.687 117.233 121.021 117.343 123.243L115.105 123.369C115.009 122.203 114.161 121.635 113.009 121.667C111.986 121.695 111.421 122.127 111.44 122.815C111.456 123.39 111.926 123.585 112.65 123.709L114.546 123.993C116.604 124.304 117.592 125.301 117.638 126.948C117.666 127.988 117.288 128.783 116.503 129.333C115.718 129.883 114.75 130.182 113.615 130.213C112.287 130.25 111.175 129.961 110.277 129.329C109.395 128.698 108.937 127.782 108.904 126.566Z" fill="#553631"/>
<path d="M7.83981 39.3485C9.06062 42.6755 10.297 47.6046 12.1425 49.5305C12.7302 50.1435 18.9107 49.2273 20.9371 48.8585C25.574 48.0139 30.1942 47.076 34.7994 46.0752C40.7407 44.7843 59.6651 37.6007 60.6672 33.8206C62.0921 28.4438 55.3948 6.29676 52.2272 2.825C51.8186 2.37745 51.3649 1.94307 50.8274 1.67048C46.1959 -0.678245 44.3592 7.18843 43.5219 9.89028L43.174 11.0788C42.9525 11.8765 42.7503 12.68 42.549 13.4833C42.5124 13.6303 42.1241 17.3113 41.091 17.173C40.0349 17.0314 38.3104 15.6072 37.6388 15.037C34.2662 12.1733 32.8604 10.3683 28.9885 8.21518C28.2614 7.81084 25.9326 7.43231 24.9209 8.11237C19.972 11.4375 19.5224 23.2988 17.9996 22.8159C13.3321 21.3363 9.48822 17.7014 4.92621 15.8578C4.22974 15.5763 2.59062 15.1977 1.954 16.0859C1.18244 17.1626 1.46277 19.5255 1.68717 20.5516C3.16541 27.3017 5.3907 32.6756 7.83981 39.3485Z" fill="#FF9C40"/>
<defs>
<linearGradient id="paint0_linear_4993_2727" x1="71.482" y1="96.7133" x2="71.482" y2="47.6483" gradientUnits="userSpaceOnUse">
<stop stop-color="#553631"/>
<stop offset="1" stop-color="#74534D"/>
</linearGradient>
<linearGradient id="paint1_linear_4993_2727" x1="71.482" y1="96.7133" x2="71.482" y2="47.6483" gradientUnits="userSpaceOnUse">
<stop stop-color="#553631"/>
<stop offset="1" stop-color="#74534D"/>
</linearGradient>
</defs>
</svg>
