<svg width="13" height="13" viewBox="0 0 13 13" fill="none" xmlns="http://www.w3.org/2000/svg">
<path d="M6.5 13C5.47989 13 4.6409 12.2245 4.54039 11.2309C3.76674 11.8624 2.62513 11.8175 1.90381 11.0962C1.18248 10.3749 1.13757 9.23326 1.76909 8.45961C0.775482 8.3591 -4.45905e-08 7.52011 0 6.5C8.07383e-08 5.47989 0.775484 4.6409 1.76909 4.54039C1.13757 3.76674 1.18248 2.62513 1.90381 1.90381C2.62514 1.18248 3.76674 1.13757 4.54039 1.76909C4.6409 0.775482 5.47989 8.07382e-08 6.5 0C7.52011 -4.45905e-08 8.3591 0.775482 8.45961 1.76909C9.23326 1.13757 10.3749 1.18248 11.0962 1.9038C11.8175 2.62513 11.8624 3.76674 11.2309 4.54039C12.2245 4.6409 13 5.47989 13 6.5C13 7.52011 12.2245 8.3591 11.2309 8.45961C11.8624 9.23326 11.8175 10.3749 11.0962 11.0962C10.3749 11.8175 9.23326 11.8624 8.45961 11.2309C8.3591 12.2245 7.52011 13 6.5 13Z" fill="#F2AF31"/>
</svg>
